<mxfile host="app.diagrams.net" agent="Mozilla/5.0 (Windows NT 10.0; Win64; x64) AppleWebKit/537.36 (KHTML, like Gecko) Chrome/129.0.0.0 Safari/537.36" version="24.7.16">
  <diagram name="PÃ¡gina-1" id="JDoTO-MCwFCu7HkWb9at">
    <mxGraphModel dx="1434" dy="780" grid="1" gridSize="10" guides="1" tooltips="1" connect="1" arrows="1" fold="1" page="1" pageScale="1" pageWidth="827" pageHeight="1169" math="0" shadow="0">
      <root>
        <mxCell id="0" />
        <mxCell id="1" parent="0" />
        <mxCell id="llbQx8zXd0XLawUMpAyJ-1" value="FILME" style="whiteSpace=wrap;html=1;align=center;" vertex="1" parent="1">
          <mxGeometry x="329" y="1010" width="100" height="40" as="geometry" />
        </mxCell>
        <mxCell id="llbQx8zXd0XLawUMpAyJ-10" value="ATOR" style="whiteSpace=wrap;html=1;align=center;" vertex="1" parent="1">
          <mxGeometry x="151" y="1169" width="100" height="40" as="geometry" />
        </mxCell>
        <mxCell id="llbQx8zXd0XLawUMpAyJ-25" value="REALIZADOR" style="whiteSpace=wrap;html=1;align=center;" vertex="1" parent="1">
          <mxGeometry x="487" y="850" width="100" height="40" as="geometry" />
        </mxCell>
        <mxCell id="llbQx8zXd0XLawUMpAyJ-45" value="PRODUTOR" style="whiteSpace=wrap;html=1;align=center;" vertex="1" parent="1">
          <mxGeometry x="156" y="580" width="100" height="40" as="geometry" />
        </mxCell>
        <mxCell id="llbQx8zXd0XLawUMpAyJ-46" value="" style="endArrow=none;html=1;rounded=0;exitX=1;exitY=0.5;exitDx=0;exitDy=0;entryX=0;entryY=0.5;entryDx=0;entryDy=0;" edge="1" parent="1" source="llbQx8zXd0XLawUMpAyJ-51" target="llbQx8zXd0XLawUMpAyJ-45">
          <mxGeometry relative="1" as="geometry">
            <mxPoint x="36" y="540" as="sourcePoint" />
            <mxPoint x="287" y="680" as="targetPoint" />
          </mxGeometry>
        </mxCell>
        <mxCell id="llbQx8zXd0XLawUMpAyJ-47" value="DataNascimento" style="ellipse;whiteSpace=wrap;html=1;align=center;" vertex="1" parent="1">
          <mxGeometry x="266" y="580" width="100" height="40" as="geometry" />
        </mxCell>
        <mxCell id="llbQx8zXd0XLawUMpAyJ-48" value="Nome" style="ellipse;whiteSpace=wrap;html=1;align=center;" vertex="1" parent="1">
          <mxGeometry x="156" y="630" width="100" height="35" as="geometry" />
        </mxCell>
        <mxCell id="llbQx8zXd0XLawUMpAyJ-49" value="" style="endArrow=none;html=1;rounded=0;entryX=0.5;entryY=0;entryDx=0;entryDy=0;exitX=0.5;exitY=1;exitDx=0;exitDy=0;" edge="1" parent="1" source="llbQx8zXd0XLawUMpAyJ-45" target="llbQx8zXd0XLawUMpAyJ-48">
          <mxGeometry relative="1" as="geometry">
            <mxPoint x="206" y="617" as="sourcePoint" />
            <mxPoint x="287" y="680" as="targetPoint" />
          </mxGeometry>
        </mxCell>
        <mxCell id="llbQx8zXd0XLawUMpAyJ-50" value="" style="endArrow=none;html=1;rounded=0;exitX=1;exitY=0.5;exitDx=0;exitDy=0;entryX=0;entryY=0.5;entryDx=0;entryDy=0;" edge="1" parent="1" source="llbQx8zXd0XLawUMpAyJ-45" target="llbQx8zXd0XLawUMpAyJ-47">
          <mxGeometry relative="1" as="geometry">
            <mxPoint x="127" y="680" as="sourcePoint" />
            <mxPoint x="287" y="680" as="targetPoint" />
          </mxGeometry>
        </mxCell>
        <mxCell id="llbQx8zXd0XLawUMpAyJ-51" value="NContribuinte" style="ellipse;whiteSpace=wrap;html=1;align=center;fontStyle=4;" vertex="1" parent="1">
          <mxGeometry x="46" y="580" width="100" height="40" as="geometry" />
        </mxCell>
        <mxCell id="llbQx8zXd0XLawUMpAyJ-52" value="Idade" style="ellipse;whiteSpace=wrap;html=1;align=center;dashed=1;" vertex="1" parent="1">
          <mxGeometry x="156" y="530" width="100" height="40" as="geometry" />
        </mxCell>
        <mxCell id="llbQx8zXd0XLawUMpAyJ-53" value="" style="endArrow=none;html=1;rounded=0;dashed=1;dashPattern=1 2;exitX=0.5;exitY=0;exitDx=0;exitDy=0;entryX=0.5;entryY=1;entryDx=0;entryDy=0;" edge="1" parent="1" source="llbQx8zXd0XLawUMpAyJ-45" target="llbQx8zXd0XLawUMpAyJ-52">
          <mxGeometry relative="1" as="geometry">
            <mxPoint x="206" y="460" as="sourcePoint" />
            <mxPoint x="366" y="460" as="targetPoint" />
          </mxGeometry>
        </mxCell>
        <mxCell id="llbQx8zXd0XLawUMpAyJ-55" value="ORCAMENTO" style="whiteSpace=wrap;html=1;align=center;" vertex="1" parent="1">
          <mxGeometry x="110" y="740" width="100" height="40" as="geometry" />
        </mxCell>
        <mxCell id="llbQx8zXd0XLawUMpAyJ-56" value="" style="endArrow=none;html=1;rounded=0;exitX=1;exitY=0.5;exitDx=0;exitDy=0;entryX=0;entryY=0.5;entryDx=0;entryDy=0;" edge="1" parent="1" source="llbQx8zXd0XLawUMpAyJ-61" target="llbQx8zXd0XLawUMpAyJ-55">
          <mxGeometry relative="1" as="geometry">
            <mxPoint x="-10" y="700" as="sourcePoint" />
            <mxPoint x="241" y="840" as="targetPoint" />
          </mxGeometry>
        </mxCell>
        <mxCell id="llbQx8zXd0XLawUMpAyJ-57" value="Aprovado?" style="ellipse;whiteSpace=wrap;html=1;align=center;" vertex="1" parent="1">
          <mxGeometry x="219" y="740" width="100" height="40" as="geometry" />
        </mxCell>
        <mxCell id="llbQx8zXd0XLawUMpAyJ-58" value="Valor" style="ellipse;whiteSpace=wrap;html=1;align=center;" vertex="1" parent="1">
          <mxGeometry x="110" y="790" width="100" height="35" as="geometry" />
        </mxCell>
        <mxCell id="llbQx8zXd0XLawUMpAyJ-59" value="" style="endArrow=none;html=1;rounded=0;entryX=0.5;entryY=0;entryDx=0;entryDy=0;exitX=0.5;exitY=1;exitDx=0;exitDy=0;" edge="1" parent="1" source="llbQx8zXd0XLawUMpAyJ-55" target="llbQx8zXd0XLawUMpAyJ-58">
          <mxGeometry relative="1" as="geometry">
            <mxPoint x="160" y="777" as="sourcePoint" />
            <mxPoint x="241" y="840" as="targetPoint" />
          </mxGeometry>
        </mxCell>
        <mxCell id="llbQx8zXd0XLawUMpAyJ-60" value="" style="endArrow=none;html=1;rounded=0;exitX=1;exitY=0.5;exitDx=0;exitDy=0;entryX=0;entryY=0.5;entryDx=0;entryDy=0;" edge="1" parent="1" source="llbQx8zXd0XLawUMpAyJ-55" target="llbQx8zXd0XLawUMpAyJ-57">
          <mxGeometry relative="1" as="geometry">
            <mxPoint x="81" y="840" as="sourcePoint" />
            <mxPoint x="241" y="840" as="targetPoint" />
          </mxGeometry>
        </mxCell>
        <mxCell id="llbQx8zXd0XLawUMpAyJ-61" value="Id" style="ellipse;whiteSpace=wrap;html=1;align=center;fontStyle=4;" vertex="1" parent="1">
          <mxGeometry y="740" width="100" height="40" as="geometry" />
        </mxCell>
        <mxCell id="llbQx8zXd0XLawUMpAyJ-64" value="ENTRA_EM" style="shape=rhombus;perimeter=rhombusPerimeter;whiteSpace=wrap;html=1;align=center;" vertex="1" parent="1">
          <mxGeometry x="137" y="1010" width="120" height="60" as="geometry" />
        </mxCell>
        <mxCell id="llbQx8zXd0XLawUMpAyJ-67" value="" style="endArrow=none;html=1;rounded=0;exitX=0.5;exitY=1;exitDx=0;exitDy=0;entryX=0.5;entryY=0;entryDx=0;entryDy=0;" edge="1" parent="1" source="llbQx8zXd0XLawUMpAyJ-64" target="llbQx8zXd0XLawUMpAyJ-10">
          <mxGeometry relative="1" as="geometry">
            <mxPoint x="330" y="1100" as="sourcePoint" />
            <mxPoint x="490" y="1100" as="targetPoint" />
          </mxGeometry>
        </mxCell>
        <mxCell id="llbQx8zXd0XLawUMpAyJ-68" value="M" style="resizable=0;html=1;whiteSpace=wrap;align=left;verticalAlign=bottom;" connectable="0" vertex="1" parent="llbQx8zXd0XLawUMpAyJ-67">
          <mxGeometry x="-1" relative="1" as="geometry" />
        </mxCell>
        <mxCell id="llbQx8zXd0XLawUMpAyJ-69" value="N" style="resizable=0;html=1;whiteSpace=wrap;align=right;verticalAlign=bottom;" connectable="0" vertex="1" parent="llbQx8zXd0XLawUMpAyJ-67">
          <mxGeometry x="1" relative="1" as="geometry" />
        </mxCell>
        <mxCell id="llbQx8zXd0XLawUMpAyJ-70" value="REALIZA" style="shape=rhombus;perimeter=rhombusPerimeter;whiteSpace=wrap;html=1;align=center;" vertex="1" parent="1">
          <mxGeometry x="319" y="840" width="120" height="60" as="geometry" />
        </mxCell>
        <mxCell id="llbQx8zXd0XLawUMpAyJ-73" value="" style="endArrow=none;html=1;rounded=0;exitX=1;exitY=0.5;exitDx=0;exitDy=0;entryX=0;entryY=0.5;entryDx=0;entryDy=0;" edge="1" parent="1" source="llbQx8zXd0XLawUMpAyJ-70" target="llbQx8zXd0XLawUMpAyJ-25">
          <mxGeometry relative="1" as="geometry">
            <mxPoint x="330" y="900" as="sourcePoint" />
            <mxPoint x="490" y="900" as="targetPoint" />
          </mxGeometry>
        </mxCell>
        <mxCell id="llbQx8zXd0XLawUMpAyJ-74" value="M" style="resizable=0;html=1;whiteSpace=wrap;align=left;verticalAlign=bottom;" connectable="0" vertex="1" parent="llbQx8zXd0XLawUMpAyJ-73">
          <mxGeometry x="-1" relative="1" as="geometry" />
        </mxCell>
        <mxCell id="llbQx8zXd0XLawUMpAyJ-75" value="N" style="resizable=0;html=1;whiteSpace=wrap;align=right;verticalAlign=bottom;" connectable="0" vertex="1" parent="llbQx8zXd0XLawUMpAyJ-73">
          <mxGeometry x="1" relative="1" as="geometry" />
        </mxCell>
        <mxCell id="llbQx8zXd0XLawUMpAyJ-76" value="" style="shape=link;html=1;rounded=0;exitX=1;exitY=0.5;exitDx=0;exitDy=0;entryX=0;entryY=0.75;entryDx=0;entryDy=0;" edge="1" parent="1" source="llbQx8zXd0XLawUMpAyJ-64" target="llbQx8zXd0XLawUMpAyJ-1">
          <mxGeometry relative="1" as="geometry">
            <mxPoint x="330" y="900" as="sourcePoint" />
            <mxPoint x="490" y="900" as="targetPoint" />
          </mxGeometry>
        </mxCell>
        <mxCell id="llbQx8zXd0XLawUMpAyJ-77" value="N" style="resizable=0;html=1;whiteSpace=wrap;align=right;verticalAlign=bottom;" connectable="0" vertex="1" parent="llbQx8zXd0XLawUMpAyJ-76">
          <mxGeometry x="1" relative="1" as="geometry" />
        </mxCell>
        <mxCell id="llbQx8zXd0XLawUMpAyJ-78" value="" style="shape=link;html=1;rounded=0;exitX=0.5;exitY=0;exitDx=0;exitDy=0;entryX=0.5;entryY=1;entryDx=0;entryDy=0;" edge="1" parent="1" source="llbQx8zXd0XLawUMpAyJ-1" target="llbQx8zXd0XLawUMpAyJ-70">
          <mxGeometry relative="1" as="geometry">
            <mxPoint x="330" y="900" as="sourcePoint" />
            <mxPoint x="490" y="900" as="targetPoint" />
          </mxGeometry>
        </mxCell>
        <mxCell id="llbQx8zXd0XLawUMpAyJ-79" value="N" style="resizable=0;html=1;whiteSpace=wrap;align=right;verticalAlign=bottom;" connectable="0" vertex="1" parent="llbQx8zXd0XLawUMpAyJ-78">
          <mxGeometry x="1" relative="1" as="geometry" />
        </mxCell>
        <mxCell id="llbQx8zXd0XLawUMpAyJ-80" value="FILME" style="whiteSpace=wrap;html=1;align=center;" vertex="1" parent="1">
          <mxGeometry x="481" y="605" width="100" height="40" as="geometry" />
        </mxCell>
        <mxCell id="llbQx8zXd0XLawUMpAyJ-81" value="Codigo" style="ellipse;whiteSpace=wrap;html=1;align=center;fontStyle=4;" vertex="1" parent="1">
          <mxGeometry x="587" y="550" width="100" height="40" as="geometry" />
        </mxCell>
        <mxCell id="llbQx8zXd0XLawUMpAyJ-82" value="" style="endArrow=none;html=1;rounded=0;entryX=0.5;entryY=0;entryDx=0;entryDy=0;exitX=0;exitY=1;exitDx=0;exitDy=0;" edge="1" parent="1" source="llbQx8zXd0XLawUMpAyJ-81" target="llbQx8zXd0XLawUMpAyJ-80">
          <mxGeometry relative="1" as="geometry">
            <mxPoint x="634" y="585" as="sourcePoint" />
            <mxPoint x="597" y="790" as="targetPoint" />
          </mxGeometry>
        </mxCell>
        <mxCell id="llbQx8zXd0XLawUMpAyJ-83" value="Ano" style="ellipse;whiteSpace=wrap;html=1;align=center;" vertex="1" parent="1">
          <mxGeometry x="537" y="660" width="100" height="40" as="geometry" />
        </mxCell>
        <mxCell id="llbQx8zXd0XLawUMpAyJ-84" value="Titulo" style="ellipse;whiteSpace=wrap;html=1;align=center;" vertex="1" parent="1">
          <mxGeometry x="410" y="660" width="100" height="40" as="geometry" />
        </mxCell>
        <mxCell id="llbQx8zXd0XLawUMpAyJ-85" value="Direcao" style="ellipse;whiteSpace=wrap;html=1;align=center;" vertex="1" parent="1">
          <mxGeometry x="587" y="610" width="100" height="40" as="geometry" />
        </mxCell>
        <mxCell id="llbQx8zXd0XLawUMpAyJ-86" value="" style="endArrow=none;html=1;rounded=0;entryX=0.5;entryY=0;entryDx=0;entryDy=0;exitX=0.42;exitY=1.025;exitDx=0;exitDy=0;exitPerimeter=0;" edge="1" parent="1" source="llbQx8zXd0XLawUMpAyJ-80" target="llbQx8zXd0XLawUMpAyJ-84">
          <mxGeometry relative="1" as="geometry">
            <mxPoint x="527" y="650" as="sourcePoint" />
            <mxPoint x="597" y="790" as="targetPoint" />
          </mxGeometry>
        </mxCell>
        <mxCell id="llbQx8zXd0XLawUMpAyJ-87" value="" style="endArrow=none;html=1;rounded=0;exitX=0.5;exitY=1;exitDx=0;exitDy=0;entryX=0.5;entryY=0;entryDx=0;entryDy=0;" edge="1" parent="1" source="llbQx8zXd0XLawUMpAyJ-80" target="llbQx8zXd0XLawUMpAyJ-83">
          <mxGeometry relative="1" as="geometry">
            <mxPoint x="437" y="790" as="sourcePoint" />
            <mxPoint x="597" y="790" as="targetPoint" />
          </mxGeometry>
        </mxCell>
        <mxCell id="llbQx8zXd0XLawUMpAyJ-88" value="" style="endArrow=none;html=1;rounded=0;exitX=1;exitY=0.5;exitDx=0;exitDy=0;entryX=0;entryY=0.5;entryDx=0;entryDy=0;" edge="1" parent="1" source="llbQx8zXd0XLawUMpAyJ-80" target="llbQx8zXd0XLawUMpAyJ-85">
          <mxGeometry relative="1" as="geometry">
            <mxPoint x="437" y="790" as="sourcePoint" />
            <mxPoint x="597" y="790" as="targetPoint" />
          </mxGeometry>
        </mxCell>
        <mxCell id="llbQx8zXd0XLawUMpAyJ-89" value="REALIZADOR" style="whiteSpace=wrap;html=1;align=center;" vertex="1" parent="1">
          <mxGeometry x="359" y="410" width="100" height="40" as="geometry" />
        </mxCell>
        <mxCell id="llbQx8zXd0XLawUMpAyJ-90" value="" style="endArrow=none;html=1;rounded=0;exitX=1;exitY=1;exitDx=0;exitDy=0;entryX=0;entryY=0.5;entryDx=0;entryDy=0;" edge="1" parent="1" source="llbQx8zXd0XLawUMpAyJ-95" target="llbQx8zXd0XLawUMpAyJ-89">
          <mxGeometry relative="1" as="geometry">
            <mxPoint x="239" y="370" as="sourcePoint" />
            <mxPoint x="490" y="510" as="targetPoint" />
          </mxGeometry>
        </mxCell>
        <mxCell id="llbQx8zXd0XLawUMpAyJ-91" value="DataNascimento" style="ellipse;whiteSpace=wrap;html=1;align=center;" vertex="1" parent="1">
          <mxGeometry x="478" y="420" width="100" height="40" as="geometry" />
        </mxCell>
        <mxCell id="llbQx8zXd0XLawUMpAyJ-92" value="Nome" style="ellipse;whiteSpace=wrap;html=1;align=center;" vertex="1" parent="1">
          <mxGeometry x="319" y="460" width="100" height="35" as="geometry" />
        </mxCell>
        <mxCell id="llbQx8zXd0XLawUMpAyJ-93" value="" style="endArrow=none;html=1;rounded=0;entryX=0.5;entryY=0;entryDx=0;entryDy=0;exitX=0.5;exitY=1;exitDx=0;exitDy=0;" edge="1" parent="1" source="llbQx8zXd0XLawUMpAyJ-89" target="llbQx8zXd0XLawUMpAyJ-92">
          <mxGeometry relative="1" as="geometry">
            <mxPoint x="409" y="447" as="sourcePoint" />
            <mxPoint x="490" y="510" as="targetPoint" />
          </mxGeometry>
        </mxCell>
        <mxCell id="llbQx8zXd0XLawUMpAyJ-94" value="" style="endArrow=none;html=1;rounded=0;exitX=1;exitY=0.5;exitDx=0;exitDy=0;entryX=0;entryY=0.5;entryDx=0;entryDy=0;" edge="1" parent="1" source="llbQx8zXd0XLawUMpAyJ-89" target="llbQx8zXd0XLawUMpAyJ-91">
          <mxGeometry relative="1" as="geometry">
            <mxPoint x="330" y="510" as="sourcePoint" />
            <mxPoint x="490" y="510" as="targetPoint" />
          </mxGeometry>
        </mxCell>
        <mxCell id="llbQx8zXd0XLawUMpAyJ-95" value="NContribuinte" style="ellipse;whiteSpace=wrap;html=1;align=center;fontStyle=4;" vertex="1" parent="1">
          <mxGeometry x="249" y="365" width="100" height="40" as="geometry" />
        </mxCell>
        <mxCell id="llbQx8zXd0XLawUMpAyJ-96" value="Idade" style="ellipse;whiteSpace=wrap;html=1;align=center;dashed=1;" vertex="1" parent="1">
          <mxGeometry x="359" y="360" width="100" height="40" as="geometry" />
        </mxCell>
        <mxCell id="llbQx8zXd0XLawUMpAyJ-97" value="" style="endArrow=none;html=1;rounded=0;dashed=1;dashPattern=1 2;exitX=0.5;exitY=0;exitDx=0;exitDy=0;entryX=0.5;entryY=1;entryDx=0;entryDy=0;" edge="1" parent="1" source="llbQx8zXd0XLawUMpAyJ-89" target="llbQx8zXd0XLawUMpAyJ-96">
          <mxGeometry relative="1" as="geometry">
            <mxPoint x="409" y="290" as="sourcePoint" />
            <mxPoint x="569" y="290" as="targetPoint" />
          </mxGeometry>
        </mxCell>
        <mxCell id="llbQx8zXd0XLawUMpAyJ-99" value="ATOR" style="whiteSpace=wrap;html=1;align=center;" vertex="1" parent="1">
          <mxGeometry x="580" y="250.07999999999993" width="100" height="40" as="geometry" />
        </mxCell>
        <mxCell id="llbQx8zXd0XLawUMpAyJ-100" value="" style="endArrow=none;html=1;rounded=0;exitX=1;exitY=0.5;exitDx=0;exitDy=0;entryX=0;entryY=0.5;entryDx=0;entryDy=0;" edge="1" parent="1" source="llbQx8zXd0XLawUMpAyJ-107" target="llbQx8zXd0XLawUMpAyJ-99">
          <mxGeometry relative="1" as="geometry">
            <mxPoint x="449" y="290.0799999999999" as="sourcePoint" />
            <mxPoint x="700" y="430.0799999999999" as="targetPoint" />
          </mxGeometry>
        </mxCell>
        <mxCell id="llbQx8zXd0XLawUMpAyJ-101" value="DataNascimento" style="ellipse;whiteSpace=wrap;html=1;align=center;" vertex="1" parent="1">
          <mxGeometry x="580" y="315.0799999999999" width="100" height="40" as="geometry" />
        </mxCell>
        <mxCell id="llbQx8zXd0XLawUMpAyJ-102" value="Nome" style="ellipse;whiteSpace=wrap;html=1;align=center;" vertex="1" parent="1">
          <mxGeometry x="480" y="300.0799999999999" width="100" height="35" as="geometry" />
        </mxCell>
        <mxCell id="llbQx8zXd0XLawUMpAyJ-103" value="Salario" style="ellipse;whiteSpace=wrap;html=1;align=center;" vertex="1" parent="1">
          <mxGeometry x="680" y="300.0799999999999" width="100" height="40" as="geometry" />
        </mxCell>
        <mxCell id="llbQx8zXd0XLawUMpAyJ-104" value="" style="endArrow=none;html=1;rounded=0;entryX=0.7;entryY=0.057;entryDx=0;entryDy=0;entryPerimeter=0;exitX=0.25;exitY=1;exitDx=0;exitDy=0;" edge="1" parent="1" source="llbQx8zXd0XLawUMpAyJ-99" target="llbQx8zXd0XLawUMpAyJ-102">
          <mxGeometry relative="1" as="geometry">
            <mxPoint x="613" y="290.0799999999999" as="sourcePoint" />
            <mxPoint x="700" y="430.0799999999999" as="targetPoint" />
          </mxGeometry>
        </mxCell>
        <mxCell id="llbQx8zXd0XLawUMpAyJ-105" value="" style="endArrow=none;html=1;rounded=0;exitX=0.5;exitY=1;exitDx=0;exitDy=0;entryX=0.5;entryY=0;entryDx=0;entryDy=0;" edge="1" parent="1" source="llbQx8zXd0XLawUMpAyJ-99" target="llbQx8zXd0XLawUMpAyJ-101">
          <mxGeometry relative="1" as="geometry">
            <mxPoint x="540" y="430.0799999999999" as="sourcePoint" />
            <mxPoint x="700" y="430.0799999999999" as="targetPoint" />
          </mxGeometry>
        </mxCell>
        <mxCell id="llbQx8zXd0XLawUMpAyJ-106" value="" style="endArrow=none;html=1;rounded=0;exitX=0.75;exitY=1;exitDx=0;exitDy=0;entryX=0;entryY=0;entryDx=0;entryDy=0;" edge="1" parent="1" source="llbQx8zXd0XLawUMpAyJ-99" target="llbQx8zXd0XLawUMpAyJ-103">
          <mxGeometry relative="1" as="geometry">
            <mxPoint x="540" y="430.0799999999999" as="sourcePoint" />
            <mxPoint x="703" y="300.0799999999999" as="targetPoint" />
          </mxGeometry>
        </mxCell>
        <mxCell id="llbQx8zXd0XLawUMpAyJ-107" value="NContribuinte" style="ellipse;whiteSpace=wrap;html=1;align=center;fontStyle=4;" vertex="1" parent="1">
          <mxGeometry x="439" y="250.07999999999993" width="100" height="40" as="geometry" />
        </mxCell>
        <mxCell id="llbQx8zXd0XLawUMpAyJ-108" value="Idade" style="ellipse;whiteSpace=wrap;html=1;align=center;dashed=1;" vertex="1" parent="1">
          <mxGeometry x="709" y="250.07999999999993" width="100" height="40" as="geometry" />
        </mxCell>
        <mxCell id="llbQx8zXd0XLawUMpAyJ-109" value="" style="endArrow=none;html=1;rounded=0;dashed=1;dashPattern=1 2;exitX=1;exitY=0.5;exitDx=0;exitDy=0;entryX=0;entryY=0.5;entryDx=0;entryDy=0;" edge="1" parent="1" source="llbQx8zXd0XLawUMpAyJ-99" target="llbQx8zXd0XLawUMpAyJ-108">
          <mxGeometry relative="1" as="geometry">
            <mxPoint x="619" y="210.07999999999993" as="sourcePoint" />
            <mxPoint x="779" y="210.07999999999993" as="targetPoint" />
          </mxGeometry>
        </mxCell>
        <mxCell id="llbQx8zXd0XLawUMpAyJ-110" value="N" style="resizable=0;html=1;whiteSpace=wrap;align=right;verticalAlign=bottom;" connectable="0" vertex="1" parent="1">
          <mxGeometry x="629.9967390191257" y="249.9992907233618" as="geometry" />
        </mxCell>
      </root>
    </mxGraphModel>
  </diagram>
</mxfile>
